<?xml version="1.0" encoding="UTF-8" standalone="no"?>
<!-- Created with Inkscape (http://www.inkscape.org/) -->

<svg
   xmlns:osb="http://www.openswatchbook.org/uri/2009/osb"
   xmlns:dc="http://purl.org/dc/elements/1.1/"
   xmlns:cc="http://creativecommons.org/ns#"
   xmlns:rdf="http://www.w3.org/1999/02/22-rdf-syntax-ns#"
   xmlns:svg="http://www.w3.org/2000/svg"
   xmlns="http://www.w3.org/2000/svg"
   xmlns:xlink="http://www.w3.org/1999/xlink"
   xmlns:sodipodi="http://sodipodi.sourceforge.net/DTD/sodipodi-0.dtd"
   xmlns:inkscape="http://www.inkscape.org/namespaces/inkscape"
   width="250"
   height="150"
   viewBox="0 0 250 150"
   id="svg3715"
   version="1.1"
   inkscape:version="0.91 r13725"
   sodipodi:docname="logo.svg">
  <defs
     id="defs3717">
    <linearGradient
       id="linearGradient4161"
       osb:paint="solid">
      <stop
         style="stop-color:#000000;stop-opacity:1;"
         offset="0"
         id="stop4163" />
    </linearGradient>
    <linearGradient
       inkscape:collect="always"
       id="linearGradient4756">
      <stop
         style="stop-color:#307c30;stop-opacity:1;"
         offset="0"
         id="stop4758" />
      <stop
         style="stop-color:#307c30;stop-opacity:0"
         offset="1"
         id="stop4760" />
    </linearGradient>
    <linearGradient
       inkscape:collect="always"
       xlink:href="#linearGradient4756"
       id="linearGradient4762"
       x1="131.47534"
       y1="114.68349"
       x2="68.884689"
       y2="127.27155"
       gradientUnits="userSpaceOnUse"
       gradientTransform="translate(4,0)" />
    <linearGradient
       inkscape:collect="always"
       xlink:href="#linearGradient4756"
       id="linearGradient4770"
       x1="130.42633"
       y1="118.87951"
       x2="110.8449"
       y2="124.12453"
       gradientUnits="userSpaceOnUse"
       gradientTransform="translate(4,0)" />
  </defs>
  <sodipodi:namedview
     id="base"
     pagecolor="#ffffff"
     bordercolor="#666666"
     borderopacity="1.0"
     inkscape:pageopacity="0.0"
     inkscape:pageshadow="2"
     inkscape:zoom="2.8284271"
     inkscape:cx="203.62272"
     inkscape:cy="86.836684"
     inkscape:document-units="px"
     inkscape:current-layer="layer7"
     showgrid="false"
     units="px"
     inkscape:window-width="1366"
     inkscape:window-height="705"
     inkscape:window-x="0"
     inkscape:window-y="30"
     inkscape:window-maximized="1"
     showguides="false" />
  <metadata
     id="metadata3720">
    <rdf:RDF>
      <cc:Work
         rdf:about="">
        <dc:format>image/svg+xml</dc:format>
        <dc:type
           rdf:resource="http://purl.org/dc/dcmitype/StillImage" />
        <dc:title />
      </cc:Work>
    </rdf:RDF>
  </metadata>
  <g
     inkscape:groupmode="layer"
     id="layer7"
     inkscape:label="Court"
     style="display:inline">
    <path
       style="fill:#307c30;fill-opacity:1"
       d="M 238.79102 48.851562 C 238.75522 48.916387 238.70871 48.973057 238.67188 49.037109 C 238.68976 49.049694 238.70716 49.062939 238.72461 49.076172 C 238.74375 49.013371 238.76851 48.929166 238.79102 48.851562 z M 238.72461 49.076172 C 238.68885 49.193499 238.63078 49.40899 238.60156 49.496094 L 238.60156 63.578125 L 238.60156 89.980469 L 229.98047 89.980469 C 225.23875 89.980469 221.32109 89.940488 221.27539 89.892578 C 221.21388 89.828069 221.19717 70.71917 221.21094 55.486328 C 221.13562 55.575467 221.05129 55.680237 221.00391 55.734375 C 220.69827 56.083597 220.58165 56.214464 220.46289 56.339844 C 220.45923 58.64724 220.45329 59.620912 220.45312 63.576172 C 220.4523 88.540513 220.46612 90.418196 220.6582 90.640625 C 220.8558 90.869479 221.245 90.878906 229.79492 90.878906 L 238.72266 90.878906 L 238.72266 101.18945 L 238.72266 111.5 L 218.06836 111.5 L 197.41406 111.5 L 197.34961 111.11523 C 197.3266 110.97783 197.32399 96.871523 197.32422 82.572266 C 197.05622 82.708798 196.78275 82.83604 196.50977 82.962891 C 196.4971 85.96149 196.48338 89.075499 196.46484 89.074219 C 196.27134 89.060716 195.4135 88.711113 194.47266 88.298828 C 194.45838 88.377867 194.45933 88.40297 194.44141 88.503906 C 194.35376 88.784541 194.28285 89.027322 194.17188 89.234375 C 194.69275 89.459528 195.21316 89.665242 195.72852 89.84375 L 196.55664 90.128906 L 196.55664 101.01953 C 196.55664 111.40672 196.56744 111.92024 196.78125 112.12305 C 196.98799 112.31918 198.62757 112.33594 217.86523 112.33594 L 238.72266 112.33594 L 238.72266 122.14844 L 238.72266 131.96289 L 238.26367 132.32227 C 237.41967 132.98467 235.75824 134.74187 234.83984 135.94336 L 233.93164 137.13086 L 180.43164 137.13086 L 133.42773 137.13086 C 133.68284 137.45408 133.8864 137.76152 133.97461 138.03125 L 239.58203 138.03125 L 239.58203 63.513672 L 239.58203 49.548828 C 239.50358 49.548113 239.4475 49.542677 239.36523 49.542969 C 239.35875 49.542992 239.366 49.433729 239.36328 49.398438 C 239.25212 49.39079 239.13875 49.364964 239.0625 49.318359 C 238.94377 49.245791 238.83511 49.159997 238.72461 49.076172 z M 221.21289 54.816406 C 221.13089 54.896475 221.04714 54.974936 220.96484 55.054688 C 221.04739 54.97583 221.09405 54.932346 221.21289 54.818359 L 221.21289 54.816406 z M 221.21289 54.826172 C 221.00811 55.021776 220.80161 55.215602 220.59961 55.414062 C 220.28105 55.727061 220.69414 55.387676 221.21289 54.912109 C 221.21292 54.883666 221.21286 54.854581 221.21289 54.826172 z M 221.21094 55.207031 C 221.06147 55.407469 220.46788 56.232383 220.46289 56.236328 C 220.46288 56.241895 220.4629 56.248333 220.46289 56.253906 C 220.62056 56.046919 220.88594 55.711378 221.21094 55.367188 C 221.21099 55.313854 221.21089 55.260252 221.21094 55.207031 z M 238.72266 133.13086 L 238.72266 135.13086 L 238.72266 137.13281 L 236.94531 137.13281 C 235.96776 137.13281 235.16797 137.09749 235.16797 137.05469 C 235.16797 136.7876 237.69744 133.9036 238.38672 133.38477 L 238.72266 133.13086 z M 131.89648 137.9082 C 131.87698 137.9434 131.85153 137.988 131.83203 138.02344 C 131.83264 138.02444 131.83298 138.02634 131.83398 138.02734 C 131.88108 137.94234 131.86208 137.97624 131.89648 137.91406 C 131.8958 137.91206 131.89717 137.9102 131.89648 137.9082 z "
       id="path4165" />
    <path
       style="opacity:0;fill:#ffffff;fill-opacity:1;stroke:#ffffff"
       d="M 92.984375 57.722656 L 92.984375 94.845703 L 161.31445 94.845703 C 161.27372 94.398867 161.29535 93.889669 161.39453 93.220703 C 161.37916 92.562029 161.39662 91.902835 161.40039 91.244141 C 161.45969 89.841647 161.30043 88.423835 161.39453 87.023438 C 161.44493 86.274528 161.5536 85.531572 161.63281 84.785156 C 161.69571 84.352378 161.73996 83.915835 161.82227 83.486328 C 162.04961 82.299898 162.36404 81.143447 162.53125 79.945312 C 162.56625 79.694609 162.55087 79.439362 162.57617 79.1875 C 162.63747 78.577653 162.72124 77.970039 162.79297 77.361328 C 162.88037 75.482446 163.14844 73.62333 163.54102 71.785156 C 163.67625 71.151977 163.86618 70.53117 163.99414 69.896484 C 164.14947 69.126107 164.204 68.339725 164.32031 67.5625 C 164.60405 66.209631 164.79036 64.84375 164.99023 63.476562 C 165.1541 62.355587 164.93105 62.802769 165.3457 61.244141 C 165.37907 61.118722 165.42472 60.997035 165.46289 60.873047 L 165.46289 57.722656 L 92.984375 57.722656 z M 162.75195 89.775391 C 162.75285 89.740063 162.49158 90.204757 162.22656 90.726562 C 162.38818 90.456921 162.5581 90.191019 162.69336 89.912109 C 162.73398 89.828346 162.75172 89.784631 162.75195 89.775391 z M 162.61133 94.597656 C 162.60667 94.681106 162.59983 94.760924 162.5957 94.845703 L 162.68359 94.845703 C 162.65999 94.7629 162.63378 94.680674 162.61133 94.597656 z "
       id="rect4155" />
    <path
       style="fill:#ff0000;fill-opacity:1;fill-rule:nonzero;stroke:none;stroke-width:1px;stroke-linecap:butt;stroke-linejoin:miter;stroke-opacity:1"
       d="M 223.34766 15.359375 C 223.35537 15.384742 223.36085 15.410165 223.36914 15.435547 C 223.39821 15.461908 223.66817 15.738056 223.5957 15.660156 C 223.58916 15.653126 223.57894 15.647598 223.57227 15.640625 C 223.80401 15.872852 224.0027 16.072322 224.11328 16.177734 C 224.11836 16.17172 224.12382 16.16616 224.12891 16.160156 C 224.11745 16.146557 224.12246 16.150254 224.10742 16.132812 C 223.89359 15.884868 223.66089 15.653775 223.43359 15.417969 C 223.4082 15.399535 223.37542 15.378505 223.34766 15.359375 z "
       id="path4254" />
    <path
       style="fill:#ff0000;fill-opacity:1;fill-rule:nonzero;stroke:none;stroke-width:1px;stroke-linecap:butt;stroke-linejoin:miter;stroke-opacity:1"
       d="M 223.34766 15.359375 C 223.35537 15.384742 223.36085 15.410165 223.36914 15.435547 C 223.39821 15.461908 223.66817 15.738056 223.5957 15.660156 C 223.58916 15.653126 223.57894 15.647598 223.57227 15.640625 C 223.80401 15.872852 224.0027 16.072322 224.11328 16.177734 C 224.11836 16.17172 224.12382 16.16616 224.12891 16.160156 C 224.11745 16.146557 224.12246 16.150254 224.10742 16.132812 C 223.89359 15.884868 223.66089 15.653775 223.43359 15.417969 C 223.4082 15.399535 223.37542 15.378505 223.34766 15.359375 z "
       id="path4257" />
    <path
       style="fill:#ff0000;fill-opacity:1;fill-rule:nonzero;stroke:none;stroke-width:1px;stroke-linecap:butt;stroke-linejoin:miter;stroke-opacity:1"
       d="M 223.34766 15.359375 C 223.35537 15.384742 223.36085 15.410165 223.36914 15.435547 C 223.39821 15.461908 223.66817 15.738056 223.5957 15.660156 C 223.58916 15.653126 223.57894 15.647598 223.57227 15.640625 C 223.80401 15.872852 224.0027 16.072322 224.11328 16.177734 C 224.11836 16.17172 224.12382 16.16616 224.12891 16.160156 C 224.11745 16.146557 224.12246 16.150254 224.10742 16.132812 C 223.89359 15.884868 223.66089 15.653775 223.43359 15.417969 C 223.4082 15.399535 223.37542 15.378505 223.34766 15.359375 z M 196.96875 16.6875 C 196.61362 17.757603 196.78114 17.259879 196.79297 17.230469 C 196.8248 17.180934 196.85678 17.131529 196.88867 17.082031 C 196.95939 16.819162 197.02085 16.5305 196.96875 16.6875 z "
       id="path4260" />
  </g>
  <g
     inkscape:label="Layer 1"
     inkscape:groupmode="layer"
     id="layer1"
     transform="translate(0,-902.36217)"
     style="display:inline">
    <rect
       style="opacity:0;fill:#ffffff;fill-opacity:1;stroke:#ffffff"
       id="rect4157"
       width="84.145706"
       height="72.124893"
       x="71.771339"
       y="939.57861" />
    <rect
       style="opacity:0;fill:#ffffff;fill-opacity:1;stroke:#000000;stroke-opacity:1"
       id="rect4159"
       width="136.82516"
       height="89.095459"
       x="12.374369"
       y="907.75885" />
    <path
       style="opacity:0;fill:#ffffff;fill-opacity:1;stroke:#000000;stroke-width:0.35355338;stroke-opacity:1"
       d="m 16.139087,99.049446 0,-10.070304 9.103999,-0.09436 9.104,-0.09436 0,-27.223611 0,-27.223611 -9.104,-0.09436 -9.103999,-0.09436 0,-10.070303 0,-10.070303 20.32932,0 20.32932,0 0,47.552931 0,47.552935 -20.32932,0 -20.32932,0 0,-10.070307 z"
       id="path4167"
       inkscape:connector-curvature="0"
       transform="translate(0,902.36217)" />
    <path
       style="opacity:0;fill:#ffffff;fill-opacity:1;stroke:#000000;stroke-width:0.35355338;stroke-opacity:1"
       d="m 19.982828,133.50878 c -0.541372,-0.7812 -1.597154,-1.97403 -2.34618,-2.65073 l -1.361867,-1.23036 0,-9.54404 0,-9.54403 20.771262,-0.0912 20.771261,-0.0912 0.09332,-10.977366 0.09333,-10.977363 2.911876,-1.314002 C 66.817011,84.425542 71.27388,80.096288 74.086677,74.29477 76.393705,69.536416 76.870479,67.371859 76.890182,61.566848 76.910122,55.696257 76.245951,52.868873 73.679977,47.900673 70.882253,42.483765 65.574066,37.639596 60.117496,35.523763 L 58.003915,34.704205 57.910605,23.740344 57.817295,12.77648 37.046034,12.68527 16.274772,12.59405 l 0,-9.4020943 0,-9.4020945 2.298097,-2.4821573 c 1.263953,-1.3651869 2.298097,-2.6218889 2.298097,-2.7926709 0,-0.176946 22.96439,-0.310514 53.386562,-0.310514 l 53.386562,0 0,22.753828 0,22.753828 -2.0684,0.216191 c -10.2985,1.076404 -19.26002,9.04659 -22.41038,19.931307 -1.04836,3.622141 -1.11692,11.375917 -0.13223,14.955019 2.21129,8.037555 7.38376,14.393459 14.53474,17.860234 2.84515,1.379321 7.32292,2.645863 9.35426,2.645863 0.71952,0 0.72201,0.07878 0.72201,22.804191 l 0,22.8042 -53.338479,0 -53.338478,0 -0.984314,-1.42037 z"
       id="path4169"
       inkscape:connector-curvature="0"
       transform="translate(0,902.36217)" />
    <path
       style="opacity:0;fill:#ffffff;fill-opacity:1;stroke:#000000;stroke-width:0.35355338;stroke-opacity:1"
       d="m 123.40146,87.358178 c -1.26395,-0.270688 -3.80954,-1.234492 -5.65686,-2.141795 -2.80884,-1.379551 -3.85714,-2.151383 -6.4028,-4.714224 -2.50629,-2.523208 -3.33447,-3.65448 -4.68808,-6.403772 -2.15012,-4.367085 -3.0822,-8.068294 -3.1113,-12.354792 -0.0562,-8.271532 3.94427,-16.787979 10.06434,-21.425827 3.68806,-2.79484 9.45367,-5.069831 12.88829,-5.085451 l 1.14905,-0.0052 0,26.339727 0,26.339728 -0.97227,-0.02811 c -0.53475,-0.01545 -2.00642,-0.249576 -3.27037,-0.52026 z"
       id="path4177"
       inkscape:connector-curvature="0"
       transform="translate(0,902.36217)" />
    <path
       style="opacity:0;fill:#ffffff;fill-opacity:1;stroke:#000000;stroke-width:0.35355338;stroke-opacity:1"
       d="m 123.40146,87.358178 c -1.26395,-0.270688 -3.80954,-1.234492 -5.65686,-2.141795 -2.80884,-1.379551 -3.85714,-2.151383 -6.4028,-4.714224 -2.50629,-2.523208 -3.33447,-3.65448 -4.68808,-6.403772 -2.15012,-4.367085 -3.0822,-8.068294 -3.1113,-12.354792 -0.0562,-8.271532 3.94427,-16.787979 10.06434,-21.425827 3.68806,-2.79484 9.45367,-5.069831 12.88829,-5.085451 l 1.14905,-0.0052 0,26.339727 0,26.339728 -0.97227,-0.02811 c -0.53475,-0.01545 -2.00642,-0.249576 -3.27037,-0.52026 z"
       id="path4179"
       inkscape:connector-curvature="0"
       transform="translate(0,902.36217)" />
    <path
       style="opacity:0;fill:#000000;fill-opacity:1;stroke:#000000;stroke-width:0.35355338;stroke-opacity:1"
       d="m 123.40146,87.358178 c -1.26395,-0.270688 -3.80954,-1.234492 -5.65686,-2.141795 -2.80884,-1.379551 -3.85714,-2.151383 -6.4028,-4.714224 -2.50629,-2.523208 -3.33447,-3.65448 -4.68808,-6.403772 -2.15012,-4.367085 -3.0822,-8.068294 -3.1113,-12.354792 -0.0562,-8.271532 3.94427,-16.787979 10.06434,-21.425827 3.68806,-2.79484 9.45367,-5.069831 12.88829,-5.085451 l 1.14905,-0.0052 0,26.339727 0,26.339728 -0.97227,-0.02811 c -0.53475,-0.01545 -2.00642,-0.249576 -3.27037,-0.52026 z"
       id="path4181"
       inkscape:connector-curvature="0"
       transform="translate(0,902.36217)" />
    <path
       style="opacity:0;fill:#000000;fill-opacity:1;stroke:#000000;stroke-width:0.35355338;stroke-opacity:1"
       d="m 123.40146,87.358178 c -1.26395,-0.270688 -3.80954,-1.234492 -5.65686,-2.141795 -2.80884,-1.379551 -3.85714,-2.151383 -6.4028,-4.714224 -2.50629,-2.523208 -3.33447,-3.65448 -4.68808,-6.403772 -2.15012,-4.367085 -3.0822,-8.068294 -3.1113,-12.354792 -0.0562,-8.271532 3.94427,-16.787979 10.06434,-21.425827 3.68806,-2.79484 9.45367,-5.069831 12.88829,-5.085451 l 1.14905,-0.0052 0,26.339727 0,26.339728 -0.97227,-0.02811 c -0.53475,-0.01545 -2.00642,-0.249576 -3.27037,-0.52026 z"
       id="path4183"
       inkscape:connector-curvature="0"
       transform="translate(0,902.36217)" />
    <path
       style="opacity:0;fill:#000000;fill-opacity:1;stroke:#000000;stroke-width:0.35355338;stroke-opacity:1"
       d="m 123.40146,87.358178 c -1.26395,-0.270688 -3.80954,-1.234492 -5.65686,-2.141795 -2.80884,-1.379551 -3.85714,-2.151383 -6.4028,-4.714224 -2.50629,-2.523208 -3.33447,-3.65448 -4.68808,-6.403772 -2.15012,-4.367085 -3.0822,-8.068294 -3.1113,-12.354792 -0.0562,-8.271532 3.94427,-16.787979 10.06434,-21.425827 3.68806,-2.79484 9.45367,-5.069831 12.88829,-5.085451 l 1.14905,-0.0052 0,26.339727 0,26.339728 -0.97227,-0.02811 c -0.53475,-0.01545 -2.00642,-0.249576 -3.27037,-0.52026 z"
       id="path4185"
       inkscape:connector-curvature="0"
       transform="translate(0,902.36217)" />
    <path
       style="opacity:0;fill:#000000;fill-opacity:1;stroke:#000000;stroke-width:0.35355338;stroke-opacity:1"
       d="m 123.40146,87.358178 c -1.26395,-0.270688 -3.80954,-1.234492 -5.65686,-2.141795 -2.80884,-1.379551 -3.85714,-2.151383 -6.4028,-4.714224 -2.50629,-2.523208 -3.33447,-3.65448 -4.68808,-6.403772 -2.15012,-4.367085 -3.0822,-8.068294 -3.1113,-12.354792 -0.0562,-8.271532 3.94427,-16.787979 10.06434,-21.425827 3.68806,-2.79484 9.45367,-5.069831 12.88829,-5.085451 l 1.14905,-0.0052 0,26.339727 0,26.339728 -0.97227,-0.02811 c -0.53475,-0.01545 -2.00642,-0.249576 -3.27037,-0.52026 z"
       id="path4187"
       inkscape:connector-curvature="0"
       transform="translate(0,902.36217)" />
  </g>
  <g
     inkscape:groupmode="layer"
     id="layer5"
     inkscape:label="Ball"
     style="display:inline">
    <path
       style="fill:#307c30;fill-opacity:1"
       d="m 67.255948,133.67804 c -4.507263,-1.37601 -6.831925,-6.30814 -4.912229,-10.42204 1.334673,-2.8602 3.836784,-4.47281 6.939995,-4.47281 5.59282,0 9.279072,5.93132 6.767084,10.88849 -0.817719,1.61369 -2.738357,3.30131 -4.349228,3.82156 -1.331264,0.42995 -3.365613,0.51452 -4.445622,0.1848 z"
       id="path4737"
       inkscape:connector-curvature="0" />
    <rect
       style="opacity:0;fill:#000000;fill-opacity:1;stroke:#ffffff"
       id="rect3347"
       width="69"
       height="45.5"
       x="73"
       y="108" />
    <rect
       style="opacity:0;fill:#ffffff;fill-opacity:1;stroke:#ffffff"
       id="rect4149"
       width="41.5"
       height="8.5"
       x="109.5"
       y="120.5" />
  </g>
  <g
     inkscape:groupmode="layer"
     id="layer6"
     inkscape:label="Player"
     style="display:inline">
    <path
       style="fill:#000000;fill-opacity:1"
       d="m 86.616437,130.45902 c -1.257494,-0.53932 -1.851786,-3.18054 -1.189447,-5.28628 0.340062,-1.08114 0.400891,-2.00479 0.314179,-4.77052 -0.09737,-3.10577 -0.208432,-3.79184 -1.175596,-7.26221 -0.872536,-3.13082 -1.068491,-4.21717 -1.070385,-5.93407 -0.0026,-2.32759 0.42275,-4.76018 0.987239,-5.64646 0.202396,-0.31777 0.331286,-0.6142 0.286422,-0.65873 -0.04486,-0.0445 -0.850723,-0.6415 -1.790801,-1.3266 l -1.709232,-1.24563 -0.669193,0.4765 C 80.23157,99.0671 79.620658,99.39931 79.242042,99.54326 78.58832,99.7918 78.44001,99.6956 76.29738,97.6332 72.947541,94.4088 66.727102,89.15647 66.258221,89.15647 c -0.493863,0 -0.928455,0.48791 -1.80915,2.03111 -0.492105,0.86228 -1.059842,1.39696 -2.181154,2.05414 -0.833734,0.48864 -1.971803,1.25671 -2.529039,1.70683 -1.941002,1.56786 -2.700264,1.72777 -3.609312,0.76013 -1.067873,-1.1367 -1.462301,-0.91376 -5.686817,3.21429 -2.157089,2.10783 -3.958377,3.83242 -4.00286,3.83242 -0.04448,0 -0.984586,0.31957 -2.089114,0.71016 -2.007031,0.70974 -2.008881,0.7099 -3.088629,0.26733 -0.594217,-0.24356 -1.366239,-0.50457 -1.715604,-0.58002 -0.387331,-0.0837 -1.069165,-0.69452 -1.74726,-1.56541 -0.79752,-1.02426 -1.712028,-1.79369 -3.233316,-2.72037 -1.166695,-0.71068 -2.81282,-1.9837 -3.658056,-2.82894 -1.52785,-1.52785 -1.544904,-1.53671 -2.930931,-1.5225 -0.766777,0.008 -1.7511,0.0967 -2.187385,0.19752 -0.612491,0.14148 -0.999204,0.0559 -1.697093,-0.37538 -0.843139,-0.52109 -1.007663,-0.53948 -2.449549,-0.2738 -0.850137,0.15664 -1.823846,0.28481 -2.163797,0.28481 -0.763697,0 -1.921047,-0.87533 -1.921047,-1.45292 0,-0.64372 1.190061,-2.90243 1.867773,-3.54499 0.327917,-0.31091 0.598135,-0.71093 0.600484,-0.88894 0.0023,-0.17802 0.100282,-0.26432 0.217626,-0.1918 0.684728,0.42318 8.76222,-2.826252 9.079254,-3.652428 0.185206,-0.482638 2.560084,-0.111061 2.982517,0.46665 0.184126,0.251808 0.341187,1.020703 0.349024,1.708654 0.0078,0.687952 0.09255,1.692074 0.188261,2.231384 0.197307,1.11184 0.257585,1.13852 3.617178,1.60099 2.307049,0.31759 4.336046,1.17727 5.356296,2.26945 0.400775,0.42903 0.768319,0.73697 0.816763,0.68431 0.04845,-0.0527 0.726185,-1.37528 1.506085,-2.93916 0.779902,-1.56387 2.501811,-4.456732 3.826469,-6.428574 1.324655,-1.971842 2.80124,-4.364014 3.281296,-5.315938 0.480057,-0.951924 1.286954,-2.175826 1.793108,-2.719782 0.506152,-0.543957 1.505894,-1.990387 2.221652,-3.214289 1.066958,-1.824439 1.551806,-2.393517 2.691667,-3.159272 1.611689,-1.082725 1.892474,-1.909413 0.648535,-1.909413 -0.949724,0 -0.944257,-0.180537 0.09597,-3.169023 0.899444,-2.584034 1.389596,-5.155929 1.384176,-7.262962 -0.0065,-2.521858 -0.529264,-3.098336 -1.453528,-1.602844 -0.812921,1.315334 -1.691833,2.144712 -2.272804,2.144712 -0.691005,0 -3.50254,2.935147 -4.25189,4.438823 -0.301745,0.6055 -1.112551,1.662506 -1.801791,2.348903 -0.68924,0.686396 -1.321488,1.432215 -1.404998,1.657371 -0.08351,0.225158 -0.485456,0.482655 -0.893216,0.572212 -0.407759,0.08956 -0.887381,0.338754 -1.065823,0.553765 -0.273022,0.32897 -0.252821,0.434219 0.127446,0.664052 0.248542,0.150219 0.682038,0.467835 0.963325,0.705816 0.502871,0.425451 0.495277,0.432594 -0.4536,0.426793 -1.707964,-0.01043 -2.847716,-0.415869 -3.809632,-1.355153 -0.775447,-0.757205 -0.929396,-1.077979 -0.947381,-1.973999 -0.01456,-0.725625 0.09481,-1.114495 0.339923,-1.208552 0.198769,-0.07627 0.361397,-0.343778 0.361397,-0.594451 0,-0.53037 1.255659,-1.537775 1.91673,-1.537775 0.321745,0 0.539496,-0.304862 0.750561,-1.050825 0.219058,-0.77421 0.850115,-1.626266 2.39731,-3.236862 1.678951,-1.747752 2.175007,-2.438666 2.474174,-3.446068 0.205803,-0.693018 0.58817,-1.489521 0.849704,-1.77001 0.261532,-0.280488 0.704703,-1.093946 0.984821,-1.807683 0.28012,-0.713738 0.785629,-1.715256 1.123354,-2.225593 0.337725,-0.510338 0.827877,-1.549393 1.089223,-2.309014 0.781288,-2.270852 1.159676,-2.80724 3.483893,-4.938668 2.854347,-2.617581 4.319477,-3.650305 5.428127,-3.826115 1.060097,-0.168111 1.580965,-0.416363 1.555913,-0.741567 -0.03365,-0.436821 0.993604,-1.323238 1.71782,-1.482302 1.470218,-0.322914 1.896677,-2.532749 0.795442,-4.121832 -0.591886,-0.854091 -0.656234,-1.175085 -0.69034,-3.443652 -0.02619,-1.741776 0.06817,-2.699011 0.310619,-3.151075 0.191527,-0.357122 0.337285,-1.038736 0.323904,-1.514698 -0.01696,-0.603412 0.156993,-1.052509 0.574638,-1.483518 0.329432,-0.339972 1.064817,-1.146635 1.634191,-1.792583 1.015752,-1.15236 1.06277,-1.174452 2.499532,-1.174452 0.805367,0 1.764755,0.154038 2.131973,0.342306 0.367218,0.188269 0.945826,0.341788 1.285799,0.341155 0.339973,-6.33e-4 1.040839,0.248968 1.557481,0.55467 1.153193,0.682357 3.140325,3.07037 3.140325,3.773852 0,0.283855 0.128248,0.870763 0.284996,1.30424 0.254715,0.704405 0.217083,0.877177 -0.354197,1.626164 -0.380713,0.49914 -0.806927,1.587318 -1.053987,2.690954 -0.228138,1.019113 -0.619035,2.242356 -0.868662,2.718318 -0.422028,0.804683 -1.667483,3.801383 -1.787451,4.300804 -0.02921,0.121622 0.313722,0.32087 0.762081,0.442775 0.448361,0.121905 0.877506,0.384004 0.953652,0.582442 0.260216,0.678113 0.950173,0.363792 1.514662,-0.690029 0.430207,-0.803136 1.051354,-1.357691 2.635236,-2.352714 2.418579,-1.519396 4.099489,-2.865113 5.109925,-4.090945 l 0.721138,-0.874868 -0.497461,-0.843135 c -0.613471,-1.039758 -0.916992,-4.019921 -0.428504,-4.207371 0.174897,-0.06711 0.623923,-0.746809 0.997831,-1.510431 0.634743,-1.296312 0.737811,-1.388405 1.553854,-1.388405 0.480712,0 1.085707,0.113292 1.344438,0.25176 0.3908,0.209151 0.428415,0.362238 0.222238,0.904525 -0.210259,0.553018 -0.152387,0.752752 0.378713,1.3071 0.517292,0.53994 0.625409,0.889718 0.618409,2.000698 -0.0097,1.54307 -0.403477,2.340989 -4.655659,9.434341 -3.607542,6.017982 -3.719654,6.169286 -5.091057,6.870823 -0.664599,0.339973 -1.432578,0.92272 -1.706624,1.294995 -0.472948,0.642469 -0.480412,0.761818 -0.146903,2.348903 0.481741,2.29247 0.378666,6.081824 -0.253975,9.336882 -0.324671,1.67049 -0.615203,4.532193 -0.753061,7.417588 -0.123451,2.583793 -0.338885,5.365389 -0.478744,6.181323 -0.139858,0.815935 -0.254932,2.910274 -0.255721,4.654084 l -0.0015,3.170567 0.989011,0.887853 c 1.134251,1.01824 1.186631,1.293998 0.466972,2.458429 -0.509949,0.825115 -0.511381,0.856479 -0.06181,1.354298 0.253125,0.280291 1.072178,0.820093 1.820118,1.19956 0.74794,0.379466 1.63805,0.989365 1.978023,1.355329 0.339973,0.365964 1.158333,1.062763 1.818575,1.548439 1.211992,0.891545 1.880895,2.011405 2.257632,3.779668 0.360354,1.69136 1.821293,4.43163 3.062166,5.74367 1.91829,2.02831 2.111261,2.9003 1.243722,5.62011 -0.422481,1.32452 -0.550101,2.62894 -0.72571,7.41758 -0.117195,3.19575 -0.28686,7.14561 -0.377031,8.77748 -0.158462,2.86771 -0.143916,2.99601 0.434476,3.83242 0.561311,0.81172 0.671108,0.86021 1.770464,0.78196 1.061286,-0.0755 1.246818,-0.004 1.963384,0.75327 1.10057,1.16368 2.627847,1.71775 5.332807,1.9347 2.61188,0.20947 3.56216,0.68218 3.69915,1.84011 0.0619,0.52312 -0.14173,0.91533 -0.85375,1.64451 -0.51426,0.52665 -1.14049,0.95755 -1.39163,0.95755 -0.25113,0 -0.75705,0.15479 -1.12427,0.34398 -1.15363,0.59434 -4.356686,0.97209 -7.005195,0.82615 -1.367487,-0.0754 -3.171301,-0.0336 -4.008474,0.0927 -2.747742,0.41465 -3.73981,0.46829 -4.290786,0.23199 l 5.2e-5,0 z"
       id="path4735"
       inkscape:connector-curvature="0" />
  </g>
  <g
     inkscape:groupmode="layer"
     id="layer4"
     inkscape:label="Arrow"
     style="display:inline">
    <path
       style="fill:url(#linearGradient4770);fill-opacity:1"
       d="m 87.767949,126.83031 c -2.596289,-0.25341 -5.428603,-0.57308 -6.294033,-0.71039 l -1.573508,-0.24966 1.573508,-0.31955 c 14.222084,-2.88826 28.001834,-8.31726 39.794004,-15.67821 11.16822,-6.97146 20.52441,-15.81105 28.88749,-27.292479 2.15518,-2.958779 7.04243,-11.962955 8.1014,-14.925853 0.52888,-1.479773 1.09322,-2.864974 1.25408,-3.078226 0.88024,-1.166945 3.09263,-9.272438 3.80728,-13.948677 0.23512,-1.538541 0.55954,-3.056983 0.72093,-3.374314 0.20254,-0.398238 0.12408,-0.641954 -0.25326,-0.786754 -0.30069,-0.115383 -8.20468,-0.210302 -17.56444,-0.21093 l -17.01774,-0.0012 4.19602,-2.480711 c 2.30781,-1.364391 6.47761,-3.827066 9.26622,-5.472612 2.7886,-1.645546 5.77827,-3.415733 6.6437,-3.933749 0.86543,-0.518017 3.54039,-2.088745 5.94436,-3.490506 2.40397,-1.401763 5.15761,-3.02303 6.1192,-3.602817 0.96159,-0.579787 2.27814,-1.352721 2.92568,-1.717632 0.64753,-0.36491 2.85044,-1.655966 4.89535,-2.869012 2.04492,-1.213046 5.68491,-3.353598 8.08888,-4.756784 2.40398,-1.403185 5.10792,-3.009088 6.00878,-3.568674 l 1.63791,-1.017428 5.18062,3.049052 c 2.84934,1.67699 6.04605,3.550221 7.1038,4.162746 1.05774,0.612526 4.12608,2.418139 6.81853,4.012473 2.69245,1.594334 8.43575,4.978896 12.7629,7.521249 12.42468,7.299944 21.39932,12.596004 22.72845,13.412382 l 1.22384,0.751705 -17.0257,0.0013 c -12.02892,9.09e-4 -17.09564,0.114466 -17.264,0.386879 -0.13106,0.212065 -0.53656,2.13961 -0.90111,4.283438 -0.7496,4.408277 -2.15924,9.857339 -3.08886,11.940241 -0.34333,0.769271 -1.21263,2.893507 -1.93176,4.720524 -2.44804,6.219438 -7.54657,14.498492 -13.16487,21.377259 -2.56093,3.13549 -9.34891,9.92276 -12.57739,12.57609 -14.27917,11.73537 -31.71268,19.75446 -51.53491,23.70512 -9.9537,1.98381 -24.67406,2.64149 -35.491351,1.58567 z"
       id="path4744"
       inkscape:connector-curvature="0" />
    <path
       style="opacity:0;fill:url(#linearGradient4762);fill-opacity:1"
       d="m 91.765295,126.97217 c -8.359042,-0.74568 -10.146309,-0.9553 -9.902057,-1.16134 0.157396,-0.13277 2.365642,-0.7453 4.907215,-1.36117 15.912857,-3.85601 32.771227,-11.98401 44.349757,-21.38255 5.94221,-4.82341 12.91884,-12.12324 17.87993,-18.708229 4.81807,-6.395146 10.12976,-17.012832 12.37084,-24.728442 1.2703,-4.373391 2.95367,-12.799386 2.62321,-13.130286 -0.14014,-0.140324 -7.83401,-0.33381 -17.0975,-0.429969 l -16.8427,-0.174834 2.44768,-1.427352 c 1.34622,-0.785044 13.61959,-8.008577 27.27414,-16.052297 13.65455,-8.04372 25.00127,-14.626436 25.21493,-14.628258 0.33012,-0.0028 20.31423,11.67252 48.02141,28.055587 l 7.14899,4.227154 -15.19137,0.03064 c -8.35525,0.01685 -15.97789,0.134861 -16.9392,0.262251 l -1.74783,0.231617 -1.12687,5.41142 c -1.44376,6.933223 -2.14644,9.220135 -4.68866,15.259364 -6.29849,14.962593 -18.79408,29.889014 -33.17353,39.626974 -17.31682,11.72718 -37.06794,18.4763 -58.33503,19.93354 -4.89413,0.33535 -14.187146,0.41437 -17.193355,0.14619 z"
       id="path4746"
       inkscape:connector-curvature="0" />
  </g>
</svg>
